<?xml version="1.0" encoding="utf-8"?>
<!-- Generator: Adobe Illustrator 27.5.0, SVG Export Plug-In . SVG Version: 6.00 Build 0)  -->
<svg version="1.1" id="Layer_1" xmlns:xodm="http://www.corel.com/coreldraw/odm/2003"
	 xmlns="http://www.w3.org/2000/svg" xmlns:xlink="http://www.w3.org/1999/xlink" x="0px" y="0px" viewBox="0 0 4000 4000"
	 style="enable-background:new 0 0 4000 4000;" xml:space="preserve">
<g id="Layer_x5F_1">
	<g id="_1709383477552">
		<rect style="fill-rule:evenodd;clip-rule:evenodd;fill:#FFFFFF;" width="4000" height="4000"/>
		<g>
			
				<linearGradient id="SVGID_1_" gradientUnits="userSpaceOnUse" x1="2000" y1="1375.4204" x2="2000" y2="2819.4392" gradientTransform="matrix(1 0 0 -1 0 4002)">
				<stop  offset="0" style="stop-color:#0049E7"/>
				<stop  offset="1" style="stop-color:#C835F8"/>
			</linearGradient>
			<path style="fill-rule:evenodd;clip-rule:evenodd;fill:url(#SVGID_1_);" d="M2293.67,2174.32l264.56,264.56
				c22.33,22.33,51.04,30.02,81.47,21.86l233.39-62.53c45.12-12.1,71.63-58.36,59.57-103.34l-186.77-696.26
				c-10.15-37.82-42.32-62.39-81.47-62.39h-253.77c-35.52,0-65.01,19.82-78.23,52.55l-58.13,143.92h-548.58l-58.13-143.92
				c-13.22-32.73-42.71-52.55-78.23-52.55h-253.77c-39.15,0-71.32,24.57-81.47,62.39l-186.77,696.26
				c-12.06,44.99,14.45,91.24,59.57,103.34l233.39,62.53c30.43,8.16,59.14,0.47,81.47-21.86l279.38-279.38h557.7L2293.67,2174.32z
				 M2486.71,2510.39l-249.74-249.73h-473.94l-249.74,249.73c-47.7,47.7-113.83,65.43-179.07,47.95l-233.39-62.54
				c-98.32-26.36-157.48-128.54-131.09-227l186.78-696.27c21.92-81.73,94.43-137.46,179.06-137.46h253.77
				c76.74,0,143.06,44.8,171.88,116.17l32.43,80.3h412.68l32.43-80.3c28.82-71.37,95.14-116.17,171.88-116.17h253.77
				c84.63,0,157.14,55.73,179.06,137.46l186.78,696.27c26.39,98.45-32.77,200.64-131.09,227l-233.39,62.54
				C2600.54,2575.82,2534.41,2558.09,2486.71,2510.39z"/>
			<g>
				
					<linearGradient id="SVGID_00000145781020782162497510000002625485559135073961_" gradientUnits="userSpaceOnUse" x1="2522.1399" y1="1375.4196" x2="2522.1399" y2="2819.4392" gradientTransform="matrix(1 0 0 -1 0 4002)">
					<stop  offset="0" style="stop-color:#0049E7"/>
					<stop  offset="1" style="stop-color:#C835F8"/>
				</linearGradient>
				
					<ellipse style="fill-rule:evenodd;clip-rule:evenodd;fill:url(#SVGID_00000145781020782162497510000002625485559135073961_);" cx="2522.14" cy="1787" rx="68.26" ry="87.15"/>
				
					<linearGradient id="SVGID_00000047743617129431313050000015546730153394404750_" gradientUnits="userSpaceOnUse" x1="2522.1399" y1="1375.4194" x2="2522.1399" y2="2819.4399" gradientTransform="matrix(1 0 0 -1 0 4002)">
					<stop  offset="0" style="stop-color:#0049E7"/>
					<stop  offset="1" style="stop-color:#C835F8"/>
				</linearGradient>
				
					<ellipse style="fill-rule:evenodd;clip-rule:evenodd;fill:url(#SVGID_00000047743617129431313050000015546730153394404750_);" cx="2522.14" cy="2023.07" rx="68.26" ry="87.15"/>
			</g>
			
				<linearGradient id="SVGID_00000131344521662926019900000001909383703305019786_" gradientUnits="userSpaceOnUse" x1="2657.1299" y1="1375.4203" x2="2657.1299" y2="2819.4514" gradientTransform="matrix(1 0 0 -1 0 4002)">
				<stop  offset="0" style="stop-color:#0049E7"/>
				<stop  offset="1" style="stop-color:#C835F8"/>
			</linearGradient>
			
				<ellipse style="fill-rule:evenodd;clip-rule:evenodd;fill:url(#SVGID_00000131344521662926019900000001909383703305019786_);" cx="2657.13" cy="1905.04" rx="68.26" ry="87.15"/>
			
				<linearGradient id="SVGID_00000072280476352517878050000002036483481842508687_" gradientUnits="userSpaceOnUse" x1="2387.1599" y1="1375.4203" x2="2387.1599" y2="2819.4514" gradientTransform="matrix(1 0 0 -1 0 4002)">
				<stop  offset="0" style="stop-color:#0049E7"/>
				<stop  offset="1" style="stop-color:#C835F8"/>
			</linearGradient>
			
				<ellipse style="fill-rule:evenodd;clip-rule:evenodd;fill:url(#SVGID_00000072280476352517878050000002036483481842508687_);" cx="2387.16" cy="1905.04" rx="68.26" ry="87.15"/>
			
				<linearGradient id="SVGID_00000055690405588046840830000007891910435224138160_" gradientUnits="userSpaceOnUse" x1="1440.2113" y1="1375.4186" x2="1440.2113" y2="2819.438" gradientTransform="matrix(1 0 0 -1 0 4002)">
				<stop  offset="0" style="stop-color:#0049E7"/>
				<stop  offset="1" style="stop-color:#C835F8"/>
			</linearGradient>
			<path style="fill-rule:evenodd;clip-rule:evenodd;fill:url(#SVGID_00000055690405588046840830000007891910435224138160_);" d="
				M1563.49,1962.34h-65.98v65.97c0,72.26-114.6,72.26-114.6,0v-65.97h-65.97c-72.26,0-72.26-114.61,0-114.61h65.97v-65.97
				c0-72.26,114.6-72.26,114.6,0v65.97h65.98C1635.74,1847.73,1635.74,1962.34,1563.49,1962.34z"/>
		</g>
	</g>
</g>
</svg>
