<?xml version="1.0" encoding="utf-8"?>
<!-- Generator: Adobe Illustrator 27.5.0, SVG Export Plug-In . SVG Version: 6.00 Build 0)  -->
<svg version="1.1" id="Layer_1" xmlns="http://www.w3.org/2000/svg" xmlns:xlink="http://www.w3.org/1999/xlink" x="0px" y="0px"
	 viewBox="0 0 500 500" style="enable-background:new 0 0 500 500;" xml:space="preserve">
<g>
	<g>
		<rect x="0.5" y="0.5" style="fill-rule:evenodd;clip-rule:evenodd;fill:#FFFFFF;" width="499" height="499.001"/>
	</g>
	<g>
		<g>
			<path style="fill:#BFE1FF;" d="M255.55,424.981c-100.286,0-181.874-81.589-181.874-181.875
				c0-100.285,81.588-181.873,181.874-181.873c100.284,0,181.874,81.588,181.874,181.873
				C437.424,343.392,355.834,424.981,255.55,424.981z M255.55,63.014c-99.304,0-180.091,80.789-180.091,180.092
				c0,99.304,80.787,180.094,180.091,180.094c99.302,0,180.093-80.79,180.093-180.094C435.643,143.803,354.852,63.014,255.55,63.014
				z"/>
		</g>
		<g>
			
				<ellipse transform="matrix(0.9974 -0.0719 0.0719 0.9974 -17.3279 18.6221)" style="fill-rule:evenodd;clip-rule:evenodd;fill:#BFE1FF;" cx="249.999" cy="249.999" rx="180.984" ry="180.982"/>
		</g>
		<g>
			<g>
				<g>
					<g>
						<g>
							<path style="fill-rule:evenodd;clip-rule:evenodd;fill:#59B2FF;" d="M363.889,443.482h66.172c1.124,0,2.043,0.92,2.043,2.043
								l0,0c0,1.126-0.919,2.043-2.043,2.043h-66.172c-1.124,0-2.043-0.917-2.043-2.043l0,0
								C361.846,444.402,362.765,443.482,363.889,443.482z"/>
						</g>
						<g>
							<path style="fill-rule:evenodd;clip-rule:evenodd;fill:#59B2FF;" d="M438.749,443.482h22.186c1.123,0,2.043,0.92,2.043,2.043
								l0,0c0,1.126-0.92,2.043-2.043,2.043h-22.186c-1.123,0-2.043-0.917-2.043-2.043l0,0
								C436.706,444.402,437.626,443.482,438.749,443.482z"/>
						</g>
					</g>
					<g>
						<g>
							<path style="fill-rule:evenodd;clip-rule:evenodd;fill:#BFE1FF;" d="M450.666,432.952h3.317c1.126,0,2.043,0.919,2.043,2.043
								l0,0c0,1.125-0.917,2.042-2.043,2.042h-3.317c-1.125,0-2.045-0.917-2.045-2.042l0,0
								C448.621,433.871,449.541,432.952,450.666,432.952z"/>
						</g>
						<g>
							<path style="fill-rule:evenodd;clip-rule:evenodd;fill:#BFE1FF;" d="M438.316,432.952h3.319c1.125,0,2.043,0.919,2.043,2.043
								l0,0c0,1.125-0.918,2.042-2.043,2.042h-3.319c-1.123,0-2.043-0.917-2.043-2.042l0,0
								C436.273,433.871,437.193,432.952,438.316,432.952z"/>
						</g>
						<g>
							<path style="fill-rule:evenodd;clip-rule:evenodd;fill:#BFE1FF;" d="M418.563,432.952h10.727
								c1.124,0,2.043,0.919,2.043,2.043l0,0c0,1.125-0.919,2.042-2.043,2.042h-10.727c-1.123,0-2.043-0.917-2.043-2.042l0,0
								C416.52,433.871,417.44,432.952,418.563,432.952z"/>
						</g>
						<g>
							<path style="fill-rule:evenodd;clip-rule:evenodd;fill:#BFE1FF;" d="M391.41,432.952h17.762c1.123,0,2.042,0.919,2.042,2.043
								l0,0c0,1.125-0.919,2.042-2.042,2.042H391.41c-1.125,0-2.043-0.917-2.043-2.042l0,0
								C389.367,433.871,390.285,432.952,391.41,432.952z"/>
						</g>
					</g>
					<g>
						<g>
							<path style="fill-rule:evenodd;clip-rule:evenodd;fill:#BFE1FF;" d="M431.962,454.013h3.318c1.124,0,2.044,0.92,2.044,2.044
								l0,0c0,1.125-0.92,2.043-2.044,2.043h-3.318c-1.124,0-2.044-0.918-2.044-2.043l0,0
								C429.918,454.933,430.838,454.013,431.962,454.013z"/>
						</g>
						<g>
							<path style="fill-rule:evenodd;clip-rule:evenodd;fill:#BFE1FF;" d="M419.614,454.013h3.318c1.124,0,2.043,0.92,2.043,2.044
								l0,0c0,1.125-0.919,2.043-2.043,2.043h-3.318c-1.124,0-2.044-0.918-2.044-2.043l0,0
								C417.57,454.933,418.49,454.013,419.614,454.013z"/>
						</g>
						<g>
							<path style="fill-rule:evenodd;clip-rule:evenodd;fill:#BFE1FF;" d="M399.859,454.013h10.727c1.123,0,2.043,0.92,2.043,2.044
								l0,0c0,1.125-0.92,2.043-2.043,2.043h-10.727c-1.123,0-2.043-0.918-2.043-2.043l0,0
								C397.816,454.933,398.736,454.013,399.859,454.013z"/>
						</g>
						<g>
							<path style="fill-rule:evenodd;clip-rule:evenodd;fill:#BFE1FF;" d="M372.706,454.013h17.761c1.124,0,2.043,0.92,2.043,2.044
								l0,0c0,1.125-0.919,2.043-2.043,2.043h-17.761c-1.124,0-2.042-0.918-2.042-2.043l0,0
								C370.664,454.933,371.582,454.013,372.706,454.013z"/>
						</g>
					</g>
				</g>
				<g>
					<g>
						<g>
							<path style="fill-rule:evenodd;clip-rule:evenodd;fill:#59B2FF;" d="M47.552,140.987v-66.17c0-1.125,0.919-2.044,2.043-2.044
								l0,0c1.124,0,2.044,0.919,2.044,2.044v66.17c0,1.123-0.92,2.043-2.044,2.043l0,0C48.471,143.03,47.552,142.11,47.552,140.987
								z"/>
						</g>
						<g>
							<path style="fill-rule:evenodd;clip-rule:evenodd;fill:#59B2FF;" d="M47.552,66.127V43.942c0-1.124,0.919-2.043,2.043-2.043
								l0,0c1.124,0,2.044,0.919,2.044,2.043v22.185c0,1.124-0.92,2.042-2.044,2.042l0,0C48.471,68.169,47.552,67.251,47.552,66.127
								z"/>
						</g>
					</g>
					<g>
						<g>
							<path style="fill-rule:evenodd;clip-rule:evenodd;fill:#BFE1FF;" d="M37.021,54.21v-3.319c0-1.123,0.919-2.043,2.043-2.043
								l0,0c1.124,0,2.043,0.92,2.043,2.043v3.319c0,1.125-0.919,2.043-2.043,2.043l0,0C37.94,56.253,37.021,55.335,37.021,54.21z"
								/>
						</g>
						<g>
							<path style="fill-rule:evenodd;clip-rule:evenodd;fill:#BFE1FF;" d="M37.021,66.558v-3.319c0-1.123,0.919-2.043,2.043-2.043
								l0,0c1.124,0,2.043,0.92,2.043,2.043v3.319c0,1.125-0.919,2.044-2.043,2.044l0,0C37.94,68.602,37.021,67.683,37.021,66.558z"
								/>
						</g>
						<g>
							<path style="fill-rule:evenodd;clip-rule:evenodd;fill:#BFE1FF;" d="M37.021,86.312V75.587c0-1.124,0.919-2.043,2.043-2.043
								l0,0c1.124,0,2.043,0.919,2.043,2.043v10.725c0,1.125-0.919,2.043-2.043,2.043l0,0C37.94,88.355,37.021,87.437,37.021,86.312
								z"/>
						</g>
						<g>
							<path style="fill-rule:evenodd;clip-rule:evenodd;fill:#BFE1FF;" d="M37.021,113.466v-17.76c0-1.124,0.919-2.044,2.043-2.044
								l0,0c1.124,0,2.043,0.92,2.043,2.044v17.76c0,1.124-0.919,2.044-2.043,2.044l0,0C37.94,115.51,37.021,114.59,37.021,113.466z
								"/>
						</g>
					</g>
					<g>
						<g>
							<path style="fill-rule:evenodd;clip-rule:evenodd;fill:#BFE1FF;" d="M58.083,72.915v-3.318c0-1.124,0.918-2.044,2.044-2.044
								l0,0c1.123,0,2.043,0.92,2.043,2.044v3.318c0,1.124-0.92,2.044-2.043,2.044l0,0C59.001,74.959,58.083,74.039,58.083,72.915z"
								/>
						</g>
						<g>
							<path style="fill-rule:evenodd;clip-rule:evenodd;fill:#BFE1FF;" d="M58.083,85.262v-3.318c0-1.125,0.918-2.044,2.044-2.044
								l0,0c1.123,0,2.043,0.919,2.043,2.044v3.318c0,1.125-0.92,2.043-2.043,2.043l0,0C59.001,87.305,58.083,86.387,58.083,85.262z
								"/>
						</g>
						<g>
							<path style="fill-rule:evenodd;clip-rule:evenodd;fill:#BFE1FF;" d="M58.083,105.016V94.291c0-1.124,0.918-2.043,2.044-2.043
								l0,0c1.123,0,2.043,0.919,2.043,2.043v10.725c0,1.124-0.92,2.043-2.043,2.043l0,0
								C59.001,107.059,58.083,106.14,58.083,105.016z"/>
						</g>
						<g>
							<path style="fill-rule:evenodd;clip-rule:evenodd;fill:#BFE1FF;" d="M58.083,132.17V114.41c0-1.124,0.918-2.043,2.044-2.043
								l0,0c1.123,0,2.043,0.919,2.043,2.043v17.761c0,1.123-0.92,2.044-2.043,2.044l0,0
								C59.001,134.214,58.083,133.294,58.083,132.17z"/>
						</g>
					</g>
				</g>
			</g>
			<g>
				<g>
					<g>
						<path style="fill-rule:evenodd;clip-rule:evenodd;fill:#BFE1FF;" d="M326.74,59.241v-3.318c0-1.123,0.919-2.043,2.043-2.043
							l0,0c1.125,0,2.043,0.92,2.043,2.043v3.318c0,1.125-0.918,2.043-2.043,2.043l0,0C327.659,61.284,326.74,60.366,326.74,59.241z
							"/>
					</g>
					<g>
						<path style="fill-rule:evenodd;clip-rule:evenodd;fill:#FF75CA;" d="M340.65,59.241v-3.318c0-1.123,0.919-2.043,2.044-2.043
							l0,0c1.123,0,2.041,0.92,2.041,2.043v3.318c0,1.125-0.918,2.043-2.041,2.043l0,0C341.569,61.284,340.65,60.366,340.65,59.241z
							"/>
					</g>
					<g>
						<path style="fill-rule:evenodd;clip-rule:evenodd;fill:#BFE1FF;" d="M354.56,59.241v-3.318c0-1.123,0.919-2.043,2.042-2.043
							l0,0c1.126,0,2.045,0.92,2.045,2.043v3.318c0,1.125-0.919,2.043-2.045,2.043l0,0C355.478,61.284,354.56,60.366,354.56,59.241z
							"/>
					</g>
					<g>
						<path style="fill-rule:evenodd;clip-rule:evenodd;fill:#BFE1FF;" d="M368.47,59.241v-3.318c0-1.123,0.92-2.043,2.043-2.043
							l0,0c1.124,0,2.043,0.92,2.043,2.043v3.318c0,1.125-0.919,2.043-2.043,2.043l0,0C369.39,61.284,368.47,60.366,368.47,59.241z"
							/>
					</g>
					<g>
						<path style="fill-rule:evenodd;clip-rule:evenodd;fill:#BFE1FF;" d="M382.381,59.241v-3.318c0-1.123,0.918-2.043,2.043-2.043
							l0,0c1.124,0,2.042,0.92,2.042,2.043v3.318c0,1.125-0.918,2.043-2.042,2.043l0,0
							C383.299,61.284,382.381,60.366,382.381,59.241z"/>
					</g>
				</g>
				<g>
					<g>
						<path style="fill-rule:evenodd;clip-rule:evenodd;fill:#BFE1FF;" d="M65.122,373.284h3.321c1.123,0,2.043,0.92,2.043,2.043
							l0,0c0,1.125-0.92,2.043-2.043,2.043h-3.321c-1.123,0-2.044-0.918-2.044-2.043l0,0
							C63.078,374.204,63.999,373.284,65.122,373.284z"/>
					</g>
					<g>
						<path style="fill-rule:evenodd;clip-rule:evenodd;fill:#FF75CA;" d="M65.122,387.194h3.321c1.123,0,2.043,0.92,2.043,2.043
							l0,0c0,1.125-0.92,2.043-2.043,2.043h-3.321c-1.123,0-2.044-0.918-2.044-2.043l0,0
							C63.078,388.114,63.999,387.194,65.122,387.194z"/>
					</g>
					<g>
						<path style="fill-rule:evenodd;clip-rule:evenodd;fill:#BFE1FF;" d="M65.122,401.104h3.321c1.123,0,2.043,0.919,2.043,2.042
							l0,0c0,1.125-0.92,2.044-2.043,2.044h-3.321c-1.123,0-2.044-0.919-2.044-2.044l0,0
							C63.078,402.023,63.999,401.104,65.122,401.104z"/>
					</g>
					<g>
						<path style="fill-rule:evenodd;clip-rule:evenodd;fill:#BFE1FF;" d="M65.122,415.012h3.321c1.123,0,2.043,0.92,2.043,2.043
							l0,0c0,1.126-0.92,2.045-2.043,2.045h-3.321c-1.123,0-2.044-0.919-2.044-2.045l0,0
							C63.078,415.932,63.999,415.012,65.122,415.012z"/>
					</g>
					<g>
						<path style="fill-rule:evenodd;clip-rule:evenodd;fill:#BFE1FF;" d="M65.122,428.923h3.321c1.123,0,2.043,0.92,2.043,2.043
							l0,0c0,1.126-0.92,2.044-2.043,2.044h-3.321c-1.123,0-2.044-0.918-2.044-2.044l0,0
							C63.078,429.843,63.999,428.923,65.122,428.923z"/>
					</g>
				</g>
			</g>
		</g>
	</g>
	<g>
		<path style="fill-rule:evenodd;clip-rule:evenodd;fill:#FFFFFF;" d="M89.421,271.877c1.067,0,2.089,0.191,3.031,0.542
			c0.429-0.47,1.044-0.765,1.729-0.765c0.32,0,0.625,0.064,0.901,0.181c0.152-2.012,1.832-3.594,3.881-3.594
			c0.891,0,1.71,0.298,2.364,0.8c0.145-0.195,0.316-0.368,0.512-0.511c-0.373-0.664-0.586-1.429-0.586-2.244
			c0-1.267,0.515-2.415,1.344-3.245c0.83-0.83,1.979-1.346,3.246-1.346h0.016c0.697-0.366,1.492-0.574,2.335-0.574
			c0.518,0,1.016,0.077,1.485,0.223c0.215-0.456,0.572-0.829,1.018-1.061c-0.124-0.569-0.186-1.161-0.186-1.768
			c0-2.3,0.932-4.383,2.438-5.891c1.507-1.506,3.591-2.439,5.891-2.439c0.732,0,1.442,0.094,2.118,0.271
			c4.924,0.071,8.895,4.086,8.895,9.025c0,0.07-0.003,0.141-0.004,0.211c0.436-0.11,0.893-0.17,1.363-0.17
			c0.934,0,1.813,0.23,2.584,0.641c1.316-1.796,3.441-2.962,5.837-2.962c3.995,0,7.233,3.238,7.233,7.232
			c0,0.786-0.127,1.541-0.358,2.249c0.073-0.004,0.145-0.006,0.219-0.006c1.968,0,3.564,1.594,3.564,3.561
			c0,0.232-0.023,0.457-0.066,0.675c0.025,0,0.051-0.001,0.076-0.001c1.109,0,2.016,0.884,2.052,1.985
			c0.308-0.059,0.628-0.09,0.952-0.09c1.284,0,2.484,0.446,3.351,1.266c2.313,2.188-0.212,2.757-2.646,2.757h-3.175h-2.491H97.279
			h-3.985h-6.548c-2.538,0-6.163,0.415-3.644-2.237C84.69,272.919,86.932,271.877,89.421,271.877L89.421,271.877z M111.359,260.064
			c0.127-0.022,0.255-0.033,0.387-0.033h0.066c-0.01-0.181-0.018-0.362-0.018-0.548c0-3.969,2.564-7.341,6.125-8.551
			c-1.741,0.21-3.303,1.006-4.479,2.184c-1.384,1.382-2.238,3.292-2.238,5.4C111.203,259.046,111.258,259.564,111.359,260.064
			L111.359,260.064z M102.453,268.211c0.233-0.078,0.483-0.122,0.744-0.122c0.129,0,0.256,0.011,0.378,0.031
			c-0.261-0.606-0.403-1.274-0.403-1.976c0-1.398,0.57-2.664,1.494-3.574c-0.604,0.19-1.143,0.523-1.58,0.96
			c-0.703,0.705-1.141,1.681-1.141,2.756C101.945,266.988,102.13,267.645,102.453,268.211z"/>
	</g>
	<g>
		<path style="fill-rule:evenodd;clip-rule:evenodd;fill:#FFFFFF;" d="M405.498,304.56c-1.068,0-2.091,0.191-3.035,0.542
			c-0.428-0.47-1.043-0.765-1.729-0.765c-0.319,0-0.623,0.064-0.899,0.181c-0.153-2.012-1.832-3.594-3.883-3.594
			c-0.889,0-1.708,0.298-2.364,0.8c-0.142-0.195-0.314-0.368-0.511-0.511c0.373-0.664,0.586-1.43,0.586-2.244
			c0-1.268-0.514-2.414-1.344-3.245c-0.829-0.831-1.978-1.344-3.245-1.344h-0.017c-0.697-0.368-1.491-0.575-2.334-0.575
			c-0.518,0-1.017,0.076-1.485,0.223c-0.214-0.457-0.574-0.83-1.021-1.061c0.125-0.569,0.19-1.16,0.19-1.769
			c0-2.3-0.932-4.383-2.441-5.891c-1.508-1.507-3.591-2.44-5.89-2.44c-0.732,0-1.443,0.096-2.118,0.273
			c-4.925,0.071-8.893,4.086-8.893,9.026c0,0.069,0,0.139,0.002,0.209c-0.437-0.11-0.894-0.17-1.363-0.17
			c-0.933,0-1.814,0.232-2.587,0.641c-1.313-1.796-3.438-2.962-5.836-2.962c-3.994,0-7.232,3.237-7.232,7.232
			c0,0.785,0.126,1.541,0.358,2.248c-0.073-0.004-0.146-0.006-0.219-0.006c-1.968,0-3.563,1.594-3.563,3.561
			c0,0.232,0.021,0.457,0.064,0.677c-0.025-0.001-0.05-0.003-0.075-0.003c-1.11,0-2.015,0.884-2.053,1.986
			c-0.307-0.06-0.627-0.09-0.952-0.09c-1.284,0-2.485,0.445-3.35,1.265c-2.314,2.188,0.212,2.757,2.646,2.757h3.174h2.493h51.063
			h3.986h6.548c2.537,0,6.161,0.415,3.644-2.237C410.228,305.602,407.984,304.56,405.498,304.56L405.498,304.56z M383.558,292.747
			c-0.127-0.023-0.255-0.033-0.387-0.033h-0.067c0.012-0.182,0.017-0.363,0.017-0.546c0-3.972-2.561-7.343-6.123-8.553
			c1.741,0.21,3.302,1.006,4.478,2.184c1.382,1.382,2.237,3.292,2.237,5.4C383.713,291.729,383.659,292.247,383.558,292.747
			L383.558,292.747z M392.462,300.895c-0.232-0.079-0.481-0.123-0.743-0.123c-0.128,0-0.255,0.011-0.378,0.031
			c0.262-0.605,0.404-1.274,0.404-1.976c0-1.398-0.572-2.665-1.495-3.574c0.603,0.19,1.144,0.524,1.58,0.96
			c0.703,0.705,1.141,1.681,1.141,2.756C392.971,299.67,392.787,300.328,392.462,300.895z"/>
	</g>
	<g>
		<path style="fill-rule:evenodd;clip-rule:evenodd;fill:#FFFFFF;" d="M172.59,130.909c1.066,0,2.091,0.192,3.033,0.543
			c0.427-0.47,1.044-0.765,1.729-0.765c0.319,0,0.624,0.064,0.9,0.181c0.154-2.012,1.834-3.594,3.881-3.594
			c0.892,0,1.712,0.298,2.366,0.801c0.142-0.195,0.316-0.369,0.511-0.512c-0.374-0.664-0.586-1.429-0.586-2.244
			c0-1.268,0.516-2.414,1.344-3.246c0.831-0.83,1.979-1.343,3.244-1.343h0.018c0.697-0.368,1.492-0.576,2.336-0.576
			c0.516,0,1.014,0.077,1.483,0.223c0.214-0.456,0.574-0.829,1.019-1.06c-0.122-0.57-0.187-1.16-0.187-1.768
			c0-2.301,0.933-4.384,2.44-5.892c1.506-1.507,3.589-2.44,5.891-2.44c0.732,0,1.441,0.096,2.117,0.273
			c4.924,0.07,8.894,4.085,8.894,9.026c0,0.069-0.001,0.139-0.003,0.209c0.437-0.11,0.894-0.17,1.362-0.17
			c0.935,0,1.814,0.232,2.586,0.641c1.316-1.796,3.44-2.962,5.836-2.962c3.995,0,7.232,3.237,7.232,7.232
			c0,0.785-0.127,1.541-0.358,2.248c0.073-0.004,0.146-0.006,0.221-0.006c1.966,0,3.561,1.594,3.561,3.563
			c0,0.23-0.021,0.455-0.064,0.675c0.025-0.001,0.051-0.003,0.075-0.003c1.11,0,2.017,0.883,2.054,1.986
			c0.308-0.06,0.625-0.09,0.952-0.09c1.282,0,2.485,0.446,3.349,1.265c2.313,2.189-0.211,2.757-2.646,2.757h-3.173h-2.492h-51.066
			h-3.985h-6.548c-2.536,0-6.161,0.415-3.643-2.237C167.859,131.952,170.102,130.909,172.59,130.909L172.59,130.909z
			 M194.53,119.095c0.124-0.021,0.253-0.033,0.387-0.033l0.065,0.001c-0.01-0.182-0.017-0.362-0.017-0.546
			c0-3.971,2.564-7.343,6.125-8.552c-1.741,0.209-3.304,1.005-4.481,2.183c-1.381,1.381-2.237,3.292-2.237,5.401
			C194.372,118.079,194.427,118.595,194.53,119.095L194.53,119.095z M185.623,127.245c0.234-0.079,0.484-0.122,0.744-0.122
			c0.129,0,0.255,0.01,0.377,0.03c-0.259-0.606-0.402-1.274-0.402-1.976c0-1.398,0.57-2.664,1.494-3.575
			c-0.604,0.191-1.142,0.525-1.579,0.961c-0.705,0.705-1.141,1.68-1.141,2.756C185.116,126.02,185.301,126.677,185.623,127.245z"/>
	</g>
	<g>
		<path style="fill-rule:evenodd;clip-rule:evenodd;fill:#BFE1FF;" d="M332.212,122.788l69.677,6.861
			c2.089,0.204,3.632,2.083,3.426,4.173l-4.116,41.805c-0.206,2.092-2.084,3.633-4.175,3.427l-69.675-6.86
			c-2.091-0.206-3.632-2.084-3.426-4.175l4.116-41.805C328.246,124.123,330.123,122.582,332.212,122.788z"/>
		<path style="fill:#59B2FF;" d="M397.399,179.962c-0.153,0-0.31-0.008-0.464-0.023l-69.675-6.861
			c-1.249-0.122-2.376-0.727-3.176-1.701c-0.8-0.975-1.171-2.198-1.048-3.446l4.115-41.805c0.253-2.575,2.51-4.486,5.147-4.226
			l69.675,6.86c1.249,0.122,2.376,0.728,3.176,1.701c0.801,0.976,1.174,2.199,1.05,3.447l-4.114,41.805
			C401.844,178.136,399.832,179.962,397.399,179.962z M331.838,123.661c-1.487,0-2.767,1.16-2.912,2.641l-4.116,41.805
			c-0.077,0.774,0.155,1.535,0.653,2.142c0.499,0.606,1.199,0.982,1.973,1.059l69.675,6.86c1.6,0.145,3.045-1.051,3.201-2.627
			l4.116-41.805c0.076-0.773-0.156-1.534-0.655-2.141c-0.497-0.607-1.198-0.982-1.971-1.059l-69.677-6.86
			C332.029,123.665,331.932,123.661,331.838,123.661z"/>
	</g>
	<g>
		<g>
			<path style="fill-rule:evenodd;clip-rule:evenodd;fill:#12006C;" d="M118.571,310.152c0,0-3.805,9.163-0.864,17.981
				c2.939,8.819,18.848,12.277,26.629,12.623c7.779,0.346,15.561-10.201,15.561-10.201l23.69-5.799c0,0,4.071-1.215,4.802,3.889
				c0,0,18.627-26.361,18.627-29.818c0-3.457,0.283-35.9,0.283-35.9s-16.795,3.825-22.328,6.418
				c-5.533,2.593-28.013,13.747-28.013,13.747L118.571,310.152z"/>
		</g>
		<g>
			<path style="fill-rule:evenodd;clip-rule:evenodd;fill:#59B2FF;" d="M237.661,230.231c0,0-0.524,3.523-0.975,6.559
				c-0.45,3.033,0.129,12.26,0.129,12.26c-0.33,2.53-0.471,8.716-4.114,8.78c-6.192,0.111,4.96,21.18,13.364,23.063
				c9.717,2.179,29.218-9.953,39.874-17.074c1.341-0.896-0.219-4.642,0.905-5.235c0,0-5.393-1.73-6.157-6.602
				c-0.765-4.872,0.172-22.727,0.172-22.727L237.661,230.231z"/>
		</g>
		<g>
			<path style="fill-rule:evenodd;clip-rule:evenodd;fill:#2C81FE;" d="M237.661,230.231c0,0-0.524,3.523-0.975,6.559
				c-0.45,3.033,0.129,12.26,0.129,12.26c-0.142,1.084-0.247,2.84-0.611,4.497c4.108,3.215,8.618,6.571,10.968,7.74
				c2.96,1.473,6.602,2.038,10.156,1.842c3.555-0.181,7.118-1.129,9.904-2.905c2.855-1.819,8.905-7.642,13.194-11.908
				c-0.198-7.002,0.433-19.061,0.433-19.061L237.661,230.231z"/>
		</g>
		<g>
			<path style="fill-rule:evenodd;clip-rule:evenodd;fill:#12006C;" d="M286.845,258.585l35.198,10.006
				c0,0-13.281,41.736-8.422,81.453l-2.641,34.058c1.226,4.789,6.303,24.306,9.62,32.59c-21.693,9.2-45.554,14.293-70.602,14.293
				c-18.512,0-36.372-2.786-53.192-7.952l-5.446-63.855c-7.206-51.353-1.159-46.232,15.938-96.25l25.402-5.097
				C235.01,275.507,263.097,276.149,286.845,258.585z"/>
		</g>
		<g>
			<path style="fill-rule:evenodd;clip-rule:evenodd;fill:#59B2FF;" d="M289.982,195.537c0,0,3.202-4.284,5.611-4.237
				c2.408,0.048,5.813,5.257,5.806,9.4c-0.004,4.145-3.388,18.809-11.685,13.999C281.418,209.89,289.982,195.537,289.982,195.537z"
				/>
		</g>
		<g>
			<path style="fill-rule:evenodd;clip-rule:evenodd;fill:#2C81FE;" d="M287.636,200.088c-0.25,0.305-0.29,0.794-0.089,1.093
				c0.181,0.269,0.495,0.292,0.737,0.073l0,0c0,0,3.135,12.506,4.744,10.389c1.607-2.118,3.311-4.166,3.798-7.439
				c0.488-3.272-2.436-6.012-1.531-6.928c0.86-0.873,1.952,0.3,2.053,0.411l0.004,0.003l0.002,0.004l0.002,0.002
				c0.867,1.025,1.33,2.273,1.333,2.28c0.138,0.359,0.485,0.467,0.774,0.24c0.288-0.229,0.412-0.705,0.273-1.065
				c-0.005-0.015-1.748-4.719-5.055-4.296C291.523,195.259,287.647,200.076,287.636,200.088z"/>
		</g>
		<g>
			<path style="fill-rule:evenodd;clip-rule:evenodd;fill:#59B2FF;" d="M211.467,201.945c0,0-3.854-3.708-6.223-3.27
				c-2.369,0.436-4.883,6.127-4.205,10.217c0.678,4.092,6.396,18.01,13.801,11.918C222.246,214.719,211.467,201.945,211.467,201.945
				z"/>
		</g>
		<g>
			<path style="fill-rule:evenodd;clip-rule:evenodd;fill:#2C81FE;" d="M214.521,206.055c0.297,0.26,0.416,0.736,0.266,1.064
				c-0.135,0.295-0.44,0.369-0.716,0.191l0,0c0,0-1.066,12.85-2.995,11.021c-1.931-1.828-3.945-3.575-4.956-6.726
				c-1.012-3.151,1.429-6.327,0.388-7.083c-0.99-0.723-1.879,0.61-1.959,0.735l-0.003,0.007l-0.003,0.002v0.001
				c-0.689,1.153-0.945,2.461-0.945,2.467c-0.08,0.378-0.402,0.542-0.726,0.363c-0.321-0.178-0.52-0.63-0.442-1.008
				c0.003-0.013,0.959-4.938,4.291-5.058C209.905,201.92,214.509,206.044,214.521,206.055z"/>
		</g>
		<g>
			<path style="fill-rule:evenodd;clip-rule:evenodd;fill:#59B2FF;" d="M245.252,130.722c-53.838,5.233-42.264,49.249-34.571,84.872
				c11.979,55.454,79.62,49.934,82.447-6.729C294.944,172.466,299.227,127.157,245.252,130.722z"/>
		</g>
		<g>
			<path style="fill-rule:evenodd;clip-rule:evenodd;fill:#2C81FE;" d="M262.212,196.565c1.696-3.979,3.889-6.205,6.175-7.161
				c1.569-0.653,3.182-0.713,4.709-0.329c1.521,0.38,2.953,1.2,4.176,2.305c2.232,2.013,3.758,4.979,3.804,7.948
				c0.001,0.087-0.066,0.159-0.154,0.161c-0.081,0-0.146-0.057-0.158-0.135c-0.321-2.045-1.528-4.01-3.217-5.461
				c-1.281-1.1-2.838-1.902-4.496-2.222c-1.653-0.319-3.413-0.153-5.098,0.679c-1.958,0.968-3.821,2.838-5.328,5.9
				c-0.359,0.733-0.641,1.514-0.823,2.301v0.002l0,0c-0.178,0.767-0.265,1.542-0.244,2.291c0.002,0.086-0.066,0.158-0.152,0.162
				c-0.083,0.002-0.15-0.06-0.162-0.138c-0.133-1.002-0.104-2.062,0.058-3.114C261.467,198.662,261.781,197.574,262.212,196.565z"/>
		</g>
		<g>
			<path style="fill-rule:evenodd;clip-rule:evenodd;fill:#2C81FE;" d="M222.989,166.38l4.209,3.462
				c15.771-2.871,44.228,12.487,57.28,0.885c7.992-7.101-6.894-11.882-8.101-12.128C275.173,158.355,222.989,166.38,222.989,166.38z
				"/>
		</g>
		<g>
			<path style="fill-rule:evenodd;clip-rule:evenodd;fill:#12006C;" d="M293.577,204.978c0.257-4.933,0.528-10.427,0.651-15.47
				c0.824-33.813-3.555-58.13-48.428-55.166c-44.758,4.351-45.543,28.248-39.246,61.48c0.938,4.953,2.252,11.156,3.303,15.982
				l0.002,0.001c0,0,2.529-5.015,0.528-15.438c0,0,9.095-6.694,6.317-19.98c-3.869-18.519,18.664-20.681,30.76-21.668
				c12.098-0.987,35.755-1.574,32.643,17.086c-3.11,18.662,9.186,21.732,9.186,21.732c-0.281,10.61,4.284,11.441,4.284,11.441
				V204.978z"/>
		</g>
		<g>
			<path style="fill-rule:evenodd;clip-rule:evenodd;fill:#2C81FE;" d="M248.324,197.729c-0.01,0.086-0.034,0.173-0.072,0.258
				l-0.205,0.463l-0.006,0.009l0,0c-1.063,2.372-4.449,9.958-4.367,10.745c0.1,0.562,2.35,2.039,2.838,2.322
				c1.127,0.65,3.537-0.586,4.404-1.028c3.748-1.908-2.092,3.705-3.717,3.423c-1.289-0.225-2.148-0.734-3.176-1.5
				c-0.867-0.645-2.091-1.866-2.279-2.934c-0.195-1.096,3.244-9.085,4.45-11.684c1.118-2.559,0.963-4.138,0.561-5.032
				c-0.27-0.607-0.368-1.546,0.603-0.445C248.167,193.242,249.213,195.051,248.324,197.729z"/>
		</g>
		<g>
			<path style="fill-rule:evenodd;clip-rule:evenodd;fill:#12006C;" d="M262.266,197.211c1.696-3.979,3.891-6.204,6.177-7.16
				c1.568-0.655,3.18-0.713,4.706-0.331c1.521,0.382,2.955,1.202,4.177,2.305c2.231,2.015,3.758,4.98,3.804,7.949
				c0.003,0.088-0.067,0.159-0.154,0.16c-0.079,0.002-0.147-0.056-0.158-0.133c-0.322-2.046-1.527-4.011-3.217-5.461
				c-1.279-1.1-2.838-1.904-4.496-2.223c-1.653-0.319-3.412-0.154-5.099,0.68c-1.957,0.968-3.82,2.836-5.327,5.9
				c-0.359,0.733-0.641,1.513-0.822,2.301v0.001l0,0c-0.18,0.766-0.267,1.541-0.245,2.291c0.003,0.086-0.066,0.159-0.152,0.161
				c-0.083,0.004-0.15-0.058-0.162-0.138c-0.133-1.002-0.105-2.061,0.057-3.112C261.522,199.309,261.835,198.221,262.266,197.211z"
				/>
		</g>
		<g>
			<path style="fill-rule:evenodd;clip-rule:evenodd;fill:#12006C;" d="M264.101,195.655c0.285-0.566,0.585-1.086,0.895-1.57
				c1.277-1.158,2.985-1.932,4.902-2.089c4.335-0.355,8.111,2.573,8.433,6.537c0.54,6.597-7.937,9.009-12.65,6.41
				c-0.878-0.608-1.609-1.385-2.14-2.285C262.601,200.61,262.963,197.909,264.101,195.655z"/>
		</g>
		<g>
			<g>
				<path style="fill:#BFE1FF;" d="M280.978,203.116c-0.028,0-0.057-0.004-0.087-0.009c-0.696-0.138-1.091-0.475-1.133-0.513
					c-0.183-0.164-0.199-0.445-0.035-0.629c0.164-0.183,0.443-0.198,0.625-0.038c0.01,0.009,0.267,0.217,0.717,0.305
					c0.24,0.049,0.397,0.282,0.35,0.523C281.373,202.968,281.185,203.116,280.978,203.116z"/>
			</g>
			<g>
				<path style="fill:#BFE1FF;" d="M279.259,204.687c-0.082,0-0.165-0.021-0.237-0.067c-0.503-0.314-0.709-0.699-0.732-0.741
					c-0.113-0.22-0.025-0.487,0.193-0.601c0.219-0.113,0.483-0.027,0.599,0.187c0.004,0.011,0.126,0.22,0.414,0.399
					c0.206,0.132,0.272,0.407,0.141,0.615C279.551,204.612,279.405,204.687,279.259,204.687z"/>
			</g>
		</g>
		<g>
			<path style="fill-rule:evenodd;clip-rule:evenodd;fill:#FFFFFF;" d="M268.141,200.104c0.749-0.135,1.464,0.379,1.599,1.147
				c0.133,0.768-0.363,1.499-1.112,1.635c-0.75,0.134-1.466-0.378-1.6-1.147C266.893,200.97,267.393,200.239,268.141,200.104z"/>
		</g>
		<g>
			<path style="fill-rule:evenodd;clip-rule:evenodd;fill:#2C81FE;" d="M256.261,237.202c0.649-0.136,1.063-0.754,0.925-1.377
				c-0.137-0.622-0.776-1.018-1.425-0.881c-0.011,0.002-3.575,1.275-8.033,0.877c-1.578-0.137-1.683,1.576-0.108,1.714
				C252.43,237.963,256.25,237.204,256.261,237.202z"/>
		</g>
		<g>
			<path style="fill-rule:evenodd;clip-rule:evenodd;fill:#12006C;" d="M216.315,173.688c-3.28-0.374-5.208-1.473-7.54-2.543
				c-22.399-10.272-3.854-48.569,5.61-38.078c0.107,0.119,0.275,0.537,0.316,0.375c6.413-24.75,47.334-27.49,36.608-11.744
				c0,0,29.422-9.985,31.98,11.389c5.407-15.953,26.502,34.424-3.181,38.719C255.293,175.396,238.289,165.237,216.315,173.688z"/>
		</g>
		<g>
			<g>
				<path style="fill-rule:evenodd;clip-rule:evenodd;fill:#12006C;" d="M258.779,179.026c0.082,0.657,0.264,0.971,0.393,1.115
					c0.008-0.903,0.514-1.573,1.337-2.061c5.385-2.741,14.192-1.284,18.329,1.939l0,0c0.035,0.03,0.055,0.085,0.045,0.137
					c-0.014,0.063-0.067,0.099-0.121,0.078c-2.983-1.127-5.957-1.295-8.594-0.999c-4.225,0.474-7.579,2.134-8.727,2.941
					c-0.404,0.283-0.891,0.58-1.392,0.618c-0.515,0.039-1.038-0.189-1.491-0.965c-0.149-0.257-0.262-0.511-0.341-0.753
					c-0.189-0.576-0.204-1.101-0.151-1.498c0.054-0.412,0.19-0.701,0.286-0.782c0.013-0.011,0.026-0.021,0.039-0.025l0.001-0.001
					h0.002l0.001-0.002c0.286-0.125,0.38,0.235,0.38,0.237l0,0L258.779,179.026z"/>
			</g>
			<g>
				<path style="fill-rule:evenodd;clip-rule:evenodd;fill:#59B2FF;" d="M274.762,176.044c0.31-0.256,0.749-0.178,0.982,0.172
					c0.234,0.352,0.174,0.844-0.135,1.1l-5.639,4.678c-0.307,0.256-0.749,0.178-0.981-0.174c-0.232-0.35-0.174-0.842,0.134-1.097
					L274.762,176.044z"/>
			</g>
		</g>
		<g>
			<path style="fill-rule:evenodd;clip-rule:evenodd;fill:#12006C;" d="M295.811,210.597c0.564-0.046,1.06,0.374,1.107,0.94
				c0.045,0.564-0.375,1.061-0.941,1.108c-0.564,0.045-1.06-0.376-1.107-0.941C294.824,211.139,295.244,210.642,295.811,210.597z"/>
		</g>
		<g>
			<path style="fill-rule:evenodd;clip-rule:evenodd;fill:#2C81FE;" d="M204.76,134.734c1.435,7.873,8.03,19.955,36.717,7.585
				l0.74-0.321c0.538-0.234,0.828-0.366,0.837-0.169v0.002v0.006c0,0.064-0.052,0.119-0.118,0.123l0,0
				c-0.157,0.11-0.474,0.276-0.963,0.535l-0.38,0.201c-2.185,1.153-6.477,3.315-11.334,5.203c-3.132,1.216-6.501,2.318-9.691,2.962
				c-3.906,0.786-7.146,0.763-9.803,0.337c-2.661-0.426-4.736-1.253-6.311-2.07c-0.311-0.162-0.542-0.281-0.771-0.402h-0.001l0,0
				c-2.036-1.069-3.255-1.709-4.824-1.492C199.939,142.26,202.164,137.698,204.76,134.734L204.76,134.734z M245.98,140.315
				c0.029-0.02,10.258-6.621,17.063-5.119c0.067,0.014,0.11,0.082,0.097,0.148c-0.015,0.064-0.074,0.105-0.138,0.098l0,0
				c-0.007-0.002-2.691-0.313-4.139,1.469c-1.24,1.527-2.565,1.534-4.317,1.544c-0.409,0.004-0.843,0.007-1.296,0.028
				c-1.23,0.061-2.509,0.262-3.764,0.621c-1.165,0.334-2.306,0.803-3.363,1.418l-0.006,0.004l0,0l-0.006,0.002
				c-0.059,0.035-0.135,0.014-0.169-0.046C245.908,140.425,245.926,140.351,245.98,140.315L245.98,140.315z"/>
		</g>
		<g>
			<g>
				<path style="fill-rule:evenodd;clip-rule:evenodd;fill:#12006C;" d="M237.477,217.986c3.132,0.852,7.954,0.682,12.699-0.186
					c4.749-0.868,9.361-2.424,12.064-4.341c0.539-0.382,1.283-0.254,1.664,0.283c0.171,0.244,0.238,0.529,0.214,0.803h0.001
					c-0.707,7.124-2.803,12.313-5.629,15.43c-1.744,1.928-3.78,3.086-5.957,3.447c-2.18,0.361-4.464-0.085-6.707-1.362
					c-3.531-2.013-6.989-6.127-9.756-12.441c-0.261-0.604,0.013-1.307,0.615-1.571c0.26-0.114,0.536-0.128,0.79-0.059
					L237.477,217.986z"/>
			</g>
			<g>
				<path style="fill-rule:evenodd;clip-rule:evenodd;fill:#FFFFFF;" d="M238.279,218.175c3.119,0.628,7.541,0.421,11.896-0.375
					c4.75-0.868,9.362-2.424,12.065-4.342c0.539-0.381,1.283-0.253,1.664,0.284c0.171,0.244,0.238,0.529,0.214,0.805l0.001-0.002
					c-0.058,0.578-0.124,1.142-0.198,1.693c-7.989,5.988-20.741,6.246-23.206,5.238C239.1,220.817,238.502,219.267,238.279,218.175z
					"/>
			</g>
			<g>
				<path style="fill-rule:evenodd;clip-rule:evenodd;fill:#2C81FE;" d="M242.47,229.47c1.9-1.461,4.992-2.702,9.667-1.626
					c0,0,4.4-5.95,10.614-6.035c-1.034,3.499-2.507,6.23-4.261,8.168c-1.744,1.926-3.778,3.084-5.956,3.445
					c-2.181,0.361-4.465-0.085-6.708-1.362C244.693,231.415,243.566,230.552,242.47,229.47z"/>
			</g>
		</g>
		<g>
			<path style="fill:#12006C;" d="M250.861,231.511c-0.016,0-0.029-0.001-0.045-0.003c-0.243-0.023-0.423-0.241-0.398-0.486
				c0.317-3.221,1.747-4.671,1.809-4.73c0.175-0.174,0.456-0.173,0.629,0.002c0.174,0.174,0.173,0.455-0.001,0.629
				c-0.036,0.037-1.269,1.338-1.55,4.188C251.281,231.34,251.088,231.511,250.861,231.511z"/>
		</g>
		<g>
			<path style="fill-rule:evenodd;clip-rule:evenodd;fill:#12006C;" d="M347.262,295.241l10.281-10.893c0,0,6.805,2.888,8.067,5.495
				c12.908,26.693,11.585,76.606-25.919,81.066c-20.27,2.41-27.615-7.342-35.587-23.994c-7.969-16.651-0.221-31.755,7.512-48.156
				L347.262,295.241z"/>
		</g>
		<g>
			<path style="fill-rule:evenodd;clip-rule:evenodd;fill:#59B2FF;" d="M355.263,277.394l4.152,0.894c0,0-1.206,3.42-0.957,9.12
				c0.247,5.699-5.473,25.132-20.99,26.789c-15.515,1.656-29.701-7.339-28.252-19.365
				C310.665,282.806,355.263,277.394,355.263,277.394z"/>
		</g>
		<g>
			<path style="fill-rule:evenodd;clip-rule:evenodd;fill:#2C81FE;" d="M317.466,309.961c-5.596-3.545-8.997-8.935-8.25-15.13
				c0.168-1.401,0.93-2.711,2.131-3.936l21.803,2.735l10.128,1.272C343.277,294.903,335.668,314.986,317.466,309.961z"/>
		</g>
		<g>
			<path style="fill-rule:evenodd;clip-rule:evenodd;fill:#59B2FF;" d="M365.902,242.018c0,0,4.962-14.323,12.165-21.51
				c7.201-7.186,16.12-11.184,20.06-14.729c3.937-3.545-9.663-15.5-22.186-7.467c-12.524,8.033-15.44,22.126-26.235,27.668
				c-10.795,5.541-16.232,9.715-21.366,17.927c0,0-4.977-2.39-9.557-2.706c-4.581-0.317-11.561,2.74-13.094,13.665
				c0,0-8.955,6.471-5.428,16.976c0,0-8.381,9.638-1.103,17.054c7.275,7.418,25.572,20.049,35.455,14.135
				c9.881-5.915,8.419-10.599,12.155-11.916c3.737-1.315,8.56-4.854,11.693-11.217c3.133-6.36,8.712-4.793,11.339-12.96
				C372.428,258.77,378.155,252.581,365.902,242.018z"/>
		</g>
		<g>
			<path style="fill:#2C81FE;" d="M335.572,290.585c-0.067,0-0.134-0.015-0.197-0.045c-0.707-0.346-2.778-1.137-5.401-2.136
				c-5.544-2.114-13.922-5.31-19.396-8.087c-8.117-4.119-10.596-8.075-10.696-8.242c-0.128-0.21-0.063-0.483,0.148-0.611
				c0.208-0.127,0.483-0.063,0.61,0.146c0.025,0.039,2.48,3.923,10.34,7.911c5.434,2.757,13.785,5.942,19.31,8.05
				c2.748,1.048,4.732,1.805,5.476,2.168c0.222,0.107,0.314,0.375,0.204,0.596C335.895,290.493,335.735,290.585,335.572,290.585z
				 M348.656,276.827c-0.077,0-0.156-0.02-0.229-0.063c-1.77-1.059-8.314-3.754-15.239-6.606
				c-5.791-2.386-11.778-4.851-15.644-6.632c-8.521-3.927-12.055-8.198-12.2-8.379c-0.155-0.191-0.128-0.47,0.063-0.626
				c0.191-0.153,0.473-0.126,0.627,0.065c0.035,0.041,3.568,4.299,11.884,8.129c3.849,1.773,9.828,4.237,15.609,6.618
				c6.958,2.866,13.531,5.573,15.358,6.665c0.211,0.127,0.281,0.4,0.153,0.611C348.956,276.75,348.808,276.827,348.656,276.827z
				 M363.482,263.602c-0.008,0-0.016,0-0.023,0c-0.115-0.006-2.881-0.166-6.85-3.052c-0.772-0.561-1.71-1.219-2.75-1.947
				c-1.661-1.162-3.561-2.491-5.436-3.889l-20.287-10.411c-0.219-0.111-0.307-0.38-0.193-0.599c0.113-0.219,0.381-0.307,0.599-0.194
				l16.192,8.309c-1.553-1.301-2.942-2.602-3.979-3.834c-1.574-1.869-1.612-4.512-0.102-7.251c1.484-2.693,4.531-5.266,7.051-4.93
				c2.884,0.393,4.585,0.854,7.404,1.621c1.027,0.279,2.201,0.598,3.633,0.967c5.355,1.38,7.378,3.221,7.463,3.298
				c0.18,0.167,0.189,0.447,0.022,0.628c-0.165,0.18-0.446,0.193-0.628,0.026c-0.021-0.018-1.979-1.773-7.082-3.089
				c-1.435-0.371-2.613-0.69-3.642-0.971c-2.784-0.756-4.464-1.213-7.292-1.598c-1.882-0.25-4.649,1.75-6.15,4.477
				c-0.624,1.135-1.875,4.016,0.002,6.248c1.752,2.08,4.578,4.394,7.474,6.553c0.013,0.01,0.026,0.018,0.039,0.028
				c1.867,1.392,3.765,2.72,5.423,3.88c1.045,0.73,1.99,1.393,2.766,1.956c3.727,2.712,6.34,2.881,6.365,2.882
				c0.246,0.014,0.434,0.222,0.422,0.468C363.913,263.417,363.719,263.602,363.482,263.602z"/>
		</g>
		<g>
			<path style="fill-rule:evenodd;clip-rule:evenodd;fill:#59B2FF;" d="M177.86,216.435c0,0-7.973,3.181-10.085,9.042
				c-11.885,32.991-0.996,47.365-10.085,74.838c-3.807,11.508-18.809,22.599-25.877,25.641c-7.07,3.041-17.582-6.544-16.614-27.776
				c0.969-21.231,35.537-89.991,38.117-94.84L177.86,216.435z"/>
		</g>
		<g>
			<path style="fill-rule:evenodd;clip-rule:evenodd;fill:#2C81FE;" d="M177.352,216.655c-1.787,0.811-7.786,3.854-9.577,8.822
				c-0.308,0.857-0.598,1.699-0.878,2.532c-9.597-0.305-11.026-9.68-10.116-10.371c0,0,12.362-3.056,16.421-3.688l3.597,1.919
				C176.988,216.115,177.176,216.377,177.352,216.655z"/>
		</g>
		<g>
			<path style="fill:#2C81FE;" d="M328.524,305.022c-10.439,0-24.011-10.028-29.686-15.815c-7.478-7.621,1-17.558,1.087-17.656
				c0.161-0.188,0.441-0.207,0.629-0.045c0.184,0.162,0.204,0.442,0.043,0.629c-0.329,0.381-8.022,9.416-1.121,16.449
				c7.533,7.68,25.51,19.691,34.909,14.064c5.774-3.458,7.59-6.453,8.915-8.641c0.924-1.522,1.652-2.727,3.319-3.313
				c1.713-0.604,7.59-3.177,11.442-10.995c0.107-0.22,0.373-0.312,0.597-0.202c0.22,0.108,0.31,0.376,0.2,0.596
				c-3.998,8.121-10.152,10.811-11.941,11.441c-1.367,0.48-1.959,1.457-2.854,2.936c-1.374,2.267-3.257,5.372-9.222,8.942
				C332.967,304.536,330.821,305.021,328.524,305.022z"/>
		</g>
		<g>
			<g>
				<path style="fill-rule:evenodd;clip-rule:evenodd;fill:#12006C;" d="M238.493,192.685c-0.02,0.684-0.196,1.024-0.329,1.184
					c-0.108-0.927-0.767-1.561-1.77-1.977c-6.519-2.264-16.521,0.129-20.938,3.86v0.002c-0.04,0.031-0.057,0.09-0.038,0.144
					c0.023,0.063,0.088,0.093,0.147,0.067c3.318-1.462,6.734-1.937,9.809-1.902c4.928,0.056,8.983,1.418,10.396,2.127
					c0.498,0.25,1.093,0.505,1.676,0.493c0.598-0.013,1.176-0.3,1.613-1.144c0.145-0.277,0.245-0.549,0.311-0.808
					c0.154-0.608,0.114-1.148,0.008-1.552c-0.107-0.417-0.296-0.7-0.415-0.774c-0.017-0.011-0.032-0.018-0.047-0.021l-0.003-0.002
					l-0.001-0.002h-0.003c-0.344-0.099-0.412,0.281-0.412,0.281h0.001L238.493,192.685z"/>
			</g>
			<g>
				<g>
					<path style="fill:#BFE1FF;" d="M216.306,209.962c-0.166,0-0.323-0.092-0.402-0.249c-0.106-0.22-0.017-0.486,0.205-0.596
						c0.451-0.225,0.658-0.519,0.659-0.521c0.139-0.201,0.414-0.256,0.618-0.12c0.201,0.136,0.261,0.407,0.126,0.611
						c-0.034,0.05-0.338,0.497-1.012,0.829C216.439,209.948,216.371,209.962,216.306,209.962z"/>
				</g>
				<g>
					<path style="fill:#BFE1FF;" d="M218.502,211.102c-0.111,0-0.218-0.04-0.305-0.12c-0.181-0.167-0.189-0.449-0.022-0.629
						c0.257-0.276,0.323-0.534,0.323-0.536c0.059-0.236,0.294-0.391,0.535-0.33c0.236,0.055,0.386,0.286,0.334,0.525
						c-0.01,0.049-0.117,0.492-0.54,0.947C218.739,211.054,218.619,211.102,218.502,211.102z"/>
				</g>
			</g>
			<g>
				<path style="fill-rule:evenodd;clip-rule:evenodd;fill:#2C81FE;" d="M219.578,207.254c-2.127-5.383,5.592-9.637,10.97-7.441
					c4.127,1.682,6.77,2.936,7.585,2.781c0,0-1.063,2.039-1.467,1.89c-0.406-0.15-11.855,0.052-12.455,0.092
					C223.609,204.618,219.578,207.254,219.578,207.254z"/>
			</g>
			<g>
				<path style="fill-rule:evenodd;clip-rule:evenodd;fill:#12006C;" d="M229.78,205.419c-3.846-0.396-7.917-0.327-10.105,2.398
					c-0.02,0.041-0.067,0.066-0.111,0.061c-0.058-0.006-0.097-0.061-0.087-0.123c0.773-4.955,7.277-6.239,12.245-5.664
					c1.176,0.137,2.283,0.318,3.231,0.473l0.496,0.082c2.638,0.428,2.821-0.191,2.824-0.194c0.013-0.049,0.058-0.085,0.108-0.085
					c0.061-0.004,0.105,0.047,0.103,0.108c-0.071,1.295-1.338,2.813-2.399,3.257C234.664,206.325,232.02,205.65,229.78,205.419z"/>
			</g>
		</g>
		<g>
			<g>
				<path style="fill-rule:evenodd;clip-rule:evenodd;fill:#59B2FF;" d="M206.742,158.134c0,0-1.46-2.098-3.055-0.17
					c-1.593,1.927-9.975,11.419-15.551,15.929c-5.576,4.51-15.648,8.501-19.164,11.999c-3.514,3.497-12.629,9.356-15.656,17.447
					c-4.445,11.871,9.188,38.548,39.834-2.174c2.248-2.985,1.14-5.27,1.14-5.27s8.825-8.194,12.612-15.158
					c3.788-6.965,1.834-10.008,1.834-10.008s2.888-3.365,4.268-5.83c1.379-2.465-0.368-4.316-0.368-4.316
					c1.296-3.625-1.806-7.491-3.075-5.735C208.461,156.369,206.742,158.134,206.742,158.134z"/>
			</g>
			<g>
				<path style="fill:#2C81FE;" d="M177.593,203.52c-0.145,0-0.288-0.069-0.373-0.198c-0.136-0.206-0.079-0.482,0.126-0.618
					c1.575-1.046,3.85-2.313,6.048-3.535c2.758-1.536,5.606-3.122,7.03-4.248c0.951-0.751,1.838-1.02,2.639-0.795
					c1.157,0.324,1.626,1.563,1.646,1.615c0.085,0.23-0.033,0.484-0.264,0.57c-0.229,0.086-0.487-0.029-0.572-0.26
					c-0.003-0.009-0.338-0.87-1.056-1.068c-0.505-0.14-1.127,0.074-1.841,0.637c-1.48,1.17-4.361,2.774-7.148,4.326
					c-2.184,1.216-4.442,2.473-5.99,3.501C177.763,203.497,177.677,203.52,177.593,203.52z M180.913,188.93
					c-0.168,0-0.329-0.096-0.405-0.26c-0.104-0.223-0.005-0.487,0.219-0.591c14.44-6.668,21.008-14.217,23.48-17.059
					c0.205-0.237,0.388-0.445,0.545-0.621c0.764-0.855,1.566-1.253,2.377-1.187c1.219,0.099,1.95,1.229,1.982,1.275
					c0.132,0.207,0.07,0.481-0.136,0.613c-0.208,0.133-0.483,0.073-0.615-0.133c-0.005-0.008-0.534-0.809-1.308-0.869
					c-0.513-0.043-1.07,0.261-1.638,0.894c-0.154,0.174-0.333,0.378-0.535,0.612c-2.508,2.881-9.165,10.534-23.78,17.283
					C181.039,188.917,180.977,188.93,180.913,188.93z M177.868,184.751c-0.167,0-0.329-0.095-0.405-0.256
					c-0.103-0.224-0.007-0.489,0.217-0.593c10.669-4.996,21.033-12.801,30.803-23.193c0.438-0.468,0.742-0.79,0.901-0.939
					c0.442-0.411,0.949-0.604,1.501-0.582c1.137,0.051,2.045,1.055,2.084,1.098c0.163,0.183,0.148,0.464-0.035,0.628
					c-0.182,0.165-0.465,0.149-0.63-0.033c-0.006-0.008-0.702-0.771-1.464-0.803c-0.307-0.021-0.585,0.1-0.847,0.344
					c-0.153,0.143-0.442,0.452-0.862,0.898c-9.848,10.476-20.303,18.346-31.073,23.39
					C177.996,184.738,177.932,184.751,177.868,184.751z M179.153,179.967c-0.163,0-0.319-0.088-0.398-0.243
					c-0.112-0.22-0.022-0.488,0.196-0.599c16.026-8.146,27.341-21.151,27.451-21.283c0.162-0.186,0.445-0.206,0.63-0.046
					c0.186,0.161,0.208,0.442,0.046,0.629c-0.112,0.131-11.535,13.266-27.723,21.494
					C179.289,179.952,179.221,179.967,179.153,179.967z"/>
			</g>
		</g>
		<g>
			<path style="fill:#2C81FE;" d="M313.033,362.332c-0.11,0-0.223-0.041-0.31-0.125c-9.408-9.142-16.097-30.262-14.038-44.31
				c1.025-6.983,4.081-11.983,8.84-14.459c0.221-0.113,0.488-0.029,0.601,0.189c0.113,0.219,0.03,0.487-0.189,0.601
				c-4.495,2.339-7.39,7.11-8.369,13.798c-2.025,13.813,4.54,34.568,13.777,43.543c0.174,0.171,0.18,0.453,0.007,0.631
				C313.266,362.288,313.149,362.332,313.033,362.332z M188.419,330.403c-0.241,0-0.439-0.191-0.444-0.434
				c-0.429-15.354,2.313-23.142,8.052-37.926c0.089-0.229,0.347-0.343,0.578-0.253c0.227,0.089,0.343,0.347,0.253,0.576
				c-5.695,14.67-8.416,22.397-7.995,37.577c0.008,0.247-0.187,0.451-0.432,0.459C188.427,330.403,188.422,330.403,188.419,330.403z
				 M251.793,279.053c-3.994,0-7.744-0.529-11.02-1.662c-8.384-2.899-13.074-9.306-13.558-18.524
				c-0.013-0.247,0.176-0.456,0.421-0.469c0.248-0.013,0.456,0.176,0.469,0.421c0.465,8.828,4.945,14.958,12.958,17.73
				c15.124,5.23,40.647-2.666,52.521-16.247c0.162-0.184,0.444-0.203,0.63-0.041c0.184,0.161,0.203,0.443,0.041,0.628
				C284.745,271.767,266.601,279.053,251.793,279.053z"/>
		</g>
		<g>
			<path style="fill:#FFFFFF;" d="M115.199,298.625c-0.007,0-0.012,0-0.02,0c-0.246-0.012-0.438-0.221-0.426-0.466
				c0.93-20.38,33.494-86.23,38.155-95.004c2.347-6.241,8.175-11.113,12.432-14.672c1.333-1.116,2.486-2.079,3.317-2.907
				c1.838-1.827,5.373-3.762,9.119-5.809c3.626-1.983,7.375-4.034,10.079-6.222c3.5-2.831,8.143-7.661,11.501-11.342
				c-4.609-10.935,1.377-26.046,7.814-30.209c2.688-1.739,5.276-1.546,7.32,0.535c3.559-12.093,15.414-19.121,25.776-20.743
				c6.069-0.947,10.893,0.132,12.593,2.819c0.839,1.326,1.314,3.676-1.182,7.341c-0.141,0.203-0.417,0.258-0.619,0.118
				c-0.205-0.139-0.255-0.415-0.118-0.619c1.761-2.585,2.163-4.785,1.167-6.363c-1.484-2.346-6.077-3.292-11.701-2.415
				c-10.304,1.612-22.115,8.695-25.276,20.885c-0.042,0.175-0.217,0.342-0.396,0.367c-0.336,0.044-0.494-0.233-0.609-0.436
				c-0.028-0.047-0.055-0.096-0.078-0.127c-2.235-2.477-4.71-1.701-6.393-0.613c-6.112,3.953-11.788,18.211-7.636,28.729
				c1.547-1.709,2.748-3.097,3.325-3.793c0.154-0.189,0.438-0.217,0.626-0.059c0.189,0.156,0.217,0.438,0.061,0.626
				c-1.85,2.238-10.118,11.546-15.615,15.992c-2.766,2.237-6.551,4.308-10.211,6.31c-3.689,2.017-7.172,3.921-8.918,5.658
				c-0.859,0.855-2.025,1.831-3.375,2.96c-4.185,3.499-9.916,8.29-12.177,14.321c-0.003,0.013-0.009,0.024-0.015,0.037
				c-0.004,0.01-0.009,0.019-0.014,0.028c-4.613,8.675-37.14,74.411-38.063,94.646C115.634,298.439,115.437,298.625,115.199,298.625
				z M299.158,289.342c-0.115,0-0.231-0.045-0.319-0.135c-6.892-7.024-0.232-16.015,0.923-17.458
				c-3.131-9.782,4.33-16.187,5.512-17.125c1.697-11.564,9.291-14.157,13.539-13.868c3.953,0.273,8.119,2.025,9.359,2.582
				c4.841-7.63,10.087-11.982,21.332-17.754c5.299-2.722,8.704-7.6,12.31-12.764c3.714-5.319,7.554-10.82,13.888-14.883
				c0.208-0.135,0.482-0.073,0.615,0.135c0.133,0.207,0.074,0.482-0.135,0.616c-6.186,3.967-9.975,9.394-13.637,14.643
				c-3.671,5.257-7.138,10.224-12.637,13.046c-11.378,5.84-16.329,9.991-21.192,17.767c-0.117,0.191-0.362,0.264-0.568,0.165
				c-0.05-0.023-4.957-2.356-9.395-2.664c-3.966-0.271-11.071,2.218-12.623,13.284c-0.017,0.119-0.08,0.227-0.179,0.299
				c-0.355,0.257-8.645,6.411-5.268,16.474c0.052,0.149,0.018,0.314-0.086,0.434c-0.329,0.381-8.022,9.416-1.121,16.449
				c0.173,0.176,0.169,0.457-0.007,0.63C299.383,289.3,299.272,289.342,299.158,289.342z M250.537,254.805
				c-0.008,0-0.016-0.001-0.023-0.001c-15.535-0.709-34.273-11.357-40.268-39.116c-0.052-0.24,0.101-0.479,0.342-0.529
				c0.234-0.056,0.477,0.1,0.529,0.341c5.89,27.265,24.233,37.722,39.439,38.415c0.245,0.012,0.435,0.22,0.425,0.465
				C250.969,254.619,250.773,254.805,250.537,254.805z"/>
		</g>
	</g>
	<g>
		<path style="fill-rule:evenodd;clip-rule:evenodd;fill:#BFE1FF;" d="M89.592,158.658l53.568-19.925
			c1.607-0.599,3.41,0.227,4.008,1.834l11.957,32.141c0.596,1.608-0.229,3.412-1.835,4.008l-53.569,19.928
			c-1.606,0.598-3.41-0.228-4.01-1.834l-11.954-32.144C87.159,161.06,87.984,159.256,89.592,158.658z"/>
		<path style="fill:#59B2FF;" d="M102.642,197.729c-1.673,0-3.184-1.048-3.765-2.609l-11.955-32.143
			c-0.771-2.071,0.289-4.384,2.359-5.154l53.569-19.926c0.446-0.166,0.914-0.25,1.39-0.25c1.671,0,3.182,1.049,3.764,2.609
			l11.956,32.142c0.372,1,0.331,2.089-0.116,3.064c-0.447,0.976-1.243,1.717-2.244,2.089l-53.567,19.927
			C103.585,197.645,103.116,197.729,102.642,197.729z M144.24,139.428c-0.263,0-0.521,0.047-0.77,0.139l-53.568,19.927
			c-1.15,0.428-1.738,1.712-1.31,2.862l11.954,32.143c0.414,1.11,1.735,1.727,2.865,1.31l53.566-19.927
			c0.555-0.206,0.996-0.618,1.245-1.161c0.249-0.543,0.272-1.147,0.066-1.701l-11.957-32.142
			C146.01,140.011,145.171,139.428,144.24,139.428z"/>
	</g>
	<g>
		<path style="fill-rule:evenodd;clip-rule:evenodd;fill:#FF75CA;" d="M85.704,150.788l56.818-6.18
			c1.705-0.186,3.253,1.058,3.436,2.762l3.709,34.093c0.186,1.704-1.059,3.25-2.762,3.435l-56.821,6.182
			c-1.703,0.185-3.25-1.058-3.435-2.762l-3.709-34.093C82.757,152.52,83.999,150.973,85.704,150.788z"/>
		<path style="fill:#FFFFFF;" d="M89.748,191.987c-2.05,0-3.764-1.536-3.984-3.574l-3.708-34.092
			c-0.114-1.062,0.192-2.105,0.863-2.942c0.673-0.837,1.628-1.36,2.688-1.476l56.819-6.181c2.223-0.253,4.182,1.371,4.419,3.552
			l3.709,34.092c0.237,2.197-1.357,4.18-3.552,4.418l-56.819,6.18C90.036,191.979,89.892,191.987,89.748,191.987z M142.859,145.481
			c-0.078,0-0.16,0.004-0.24,0.014l-56.819,6.18c-0.587,0.063-1.117,0.355-1.49,0.82c-0.374,0.465-0.546,1.046-0.481,1.633
			l3.709,34.093c0.129,1.191,1.227,2.113,2.453,1.972l56.818-6.18c1.221-0.133,2.106-1.233,1.973-2.454l-3.708-34.092
			C144.951,146.353,143.98,145.481,142.859,145.481z"/>
	</g>
	<g>
		<g>
			<path style="fill-rule:evenodd;clip-rule:evenodd;fill:#FFFFFF;" d="M100.443,163.471c1.216,0.155,2.236,0.582,3.055,1.275
				c2.096,1.773,2.827,5.275,1.696,7.752c-0.997,2.213-3.103,3.15-5.381,3.494c-1.747,0.19-2.064,0.399-2.529-1.388
				c-0.661-2.879-0.978-6.724-1.052-9.683c-0.046-0.973-0.079-1.113,0.886-1.325C98.078,163.378,99.464,163.369,100.443,163.471
				L100.443,163.471z M98.455,164.175c0.45,3.659,0.791,7.526,1.382,11.164C106.061,173.979,105.589,163.814,98.455,164.175z"/>
		</g>
		<g>
			<path style="fill-rule:evenodd;clip-rule:evenodd;fill:#FFFFFF;" d="M126.036,162.02c-0.599,3.141-1.168,5.957-1.8,9.093
				c-0.111,0.542-0.211,0.973-0.305,1.289c-0.424,1.44-1.791,1.596-2.899,0.813c-1.666-1.18-3.562-7.244-4.417-9.262
				c-0.841-1.985,1.389-2.413,1.945-1.314c1.423,2.824,2.449,5.961,3.785,8.861c0.338,0.732,0.523,0.245,0.75-0.605
				c0.817-2.885,1.413-6.1,1.967-9.054C125.259,160.803,126.294,160.659,126.036,162.02z"/>
		</g>
		<g>
			<path style="fill-rule:evenodd;clip-rule:evenodd;fill:#FFFFFF;" d="M116.301,171.764c0.061,0.423,0.102,0.764,0.121,1.02
				c0.115,1.431-1.445,1.304-1.473,0.159l-0.288-2.438c-2.79,0.363-4.165,0.606-5.18,0.84c0.027,0.695,0.071,1.396,0.095,2.092
				c0.056,1.56-1.824,1.556-2.136,0.287c-0.344-1.394-0.479-3.101-0.524-4.534c-0.072-2.189,0.507-5.787,2.49-7.047
				c1.041-0.662,2.824-0.925,3.896-0.211C115.381,163.31,115.901,169.137,116.301,171.764L116.301,171.764z M114.315,169.159
				c0.193,0.035-0.641-3.452-0.86-4.128c-1.591-4.366-3.239-2.414-3.861,1.343c-0.195,1.181-0.262,2.242-0.216,3.433
				C111.023,169.315,113.564,169.019,114.315,169.159z"/>
		</g>
		<g>
			<path style="fill-rule:evenodd;clip-rule:evenodd;fill:#FFFFFF;" d="M136.395,167.237c0.032,1.467-0.528,3.692-2.251,4.455
				c-0.578,0.261-2.036,0.451-2.675,0.382c-1.146-0.14-2.084-0.568-2.811-1.283c-1.671-1.608-2.058-3.929-1.804-6.028
				c0.273-2.256,1.743-4.672,4.696-5.129c2.51-0.388,4.131,1.105,3.786,3.124c-0.439,2.53-2.612,3.724-5.46,4.229
				c-0.227,0.042-0.193,0.208-0.158,0.353c0.127,0.547,0.338,1.158,0.59,1.667c2.023,4.116,5.261,1.573,4.908-1.671
				C135.09,166.169,136.374,166.264,136.395,167.237L136.395,167.237z M129.623,166.463c5.172-0.561,5.932-5.831,2.646-5.651
				C129.65,160.956,129.463,164.987,129.623,166.463z"/>
		</g>
	</g>
	<g>
		<path style="fill-rule:evenodd;clip-rule:evenodd;fill:#FF75CA;" d="M325.986,134.581l68.651-13.74
			c2.061-0.412,4.081,0.936,4.494,2.995l8.243,41.189c0.413,2.06-0.935,4.082-2.994,4.494l-68.649,13.739
			c-2.062,0.413-4.083-0.934-4.495-2.993l-8.244-41.191C322.58,137.014,323.928,134.993,325.986,134.581z"/>
		<path style="fill:#FFFFFF;" d="M334.985,184.224c-2.239,0-4.185-1.591-4.624-3.784l-8.244-41.191
			c-0.245-1.229,0.005-2.484,0.703-3.533c0.7-1.05,1.764-1.763,2.992-2.008l68.65-13.74c0.303-0.062,0.614-0.092,0.921-0.092
			c2.239,0,4.183,1.592,4.621,3.785l8.244,41.189c0.246,1.23-0.003,2.484-0.702,3.534c-0.7,1.049-1.763,1.762-2.99,2.009
			l-68.652,13.739C335.602,184.193,335.291,184.224,334.985,184.224z M395.384,121.657c-0.188,0-0.381,0.02-0.573,0.057
			l-68.647,13.741c-0.765,0.152-1.424,0.597-1.86,1.248c-0.434,0.654-0.59,1.434-0.436,2.196l8.244,41.191
			c0.309,1.547,1.838,2.62,3.446,2.295l68.648-13.74c0.764-0.152,1.424-0.596,1.859-1.25c0.434-0.652,0.59-1.433,0.438-2.195
			l-8.244-41.189C397.984,122.647,396.775,121.657,395.384,121.657z"/>
	</g>
	<g>
		<g>
			<path style="fill-rule:evenodd;clip-rule:evenodd;fill:#FFFFFF;" d="M360.205,147.813c1.81,2.73,2.563,6.9,2.053,9.977
				c-0.106,0.638-0.266,1.229-0.482,1.751c-1.67,4.024-6.191,3.481-8.781,0.579c-2.397-2.687-3.428-7.236-2.525-10.722
				C351.798,144.26,357.253,143.36,360.205,147.813L360.205,147.813z M358.341,149.258c-1.917-3.61-5.086-3.127-5.657,0.846
				c-0.389,2.693,0.403,6.302,1.924,8.506c1.639,2.38,4.319,2.99,5.136-0.096c0.105-0.398,0.176-0.857,0.212-1.352
				C360.13,154.771,359.517,151.472,358.341,149.258z"/>
		</g>
		<g>
			<path style="fill-rule:evenodd;clip-rule:evenodd;fill:#FFFFFF;" d="M349.632,162.768c-0.494-3.968-1.938-11.612-3.268-15.188
				c-0.28-0.751-1.903-0.426-1.724,0.472c0.046,0.125,0.111,0.392,0.193,0.799c0.199,1.002,1.111,5.789,1.295,6.798l-5.151,1.031
				c-0.194-0.97-1.128-5.713-1.352-6.673c-0.519-2.208-3.37-1.27-3.223,0.695c0.271,3.52,1.877,10.268,2.851,13.914
				c0.583,2.206,3.633,1.564,3.222-0.426l-1.343-6.248c1.826-0.244,3.554-0.585,5.363-0.947c0.713,3.363,0.646,2.994,1.416,6.345
				C348.275,164.915,349.843,164.443,349.632,162.768z"/>
		</g>
		<g>
			<path style="fill-rule:evenodd;clip-rule:evenodd;fill:#FFFFFF;" d="M369.629,158.938l2.831-0.516
				c0.209-0.038,0.401-0.046,0.57-0.063c0.676-0.068,0.782,0.738,0.294,0.98c-0.096,0.047-0.405,0.115-0.912,0.233
				c-0.505,0.117-3.074,0.645-3.688,0.775c-0.611,0.132-1.207,0.229-1.781,0.345c-1.413,0.283-1.663-0.985-0.332-1.252
				c-0.978-4.89-1.957-9.778-2.935-14.668l-0.482,0.021c-0.129,0.01-0.281,0.026-0.46,0.053c-1.73,0.266-1.433-0.73-0.456-1.063
				c0.245-0.065,0.654-0.163,1.223-0.295c0.57-0.132,1.162-0.254,1.776-0.368c0.618-0.114,1.183-0.215,1.694-0.301
				c1.679-0.28,2.103,0.589,0.486,1.044l-0.801,0.212C367.646,149.033,368.637,153.985,369.629,158.938z"/>
		</g>
		<g>
			<path style="fill-rule:evenodd;clip-rule:evenodd;fill:#FFFFFF;" d="M388.641,138.409c0.136-0.079,0.301-0.149,0.493-0.213
				c0.193-0.064,0.388-0.111,0.589-0.144c0.199-0.032,0.387-0.039,0.563-0.023c0.178,0.016,0.313,0.047,0.41,0.097
				c0.071,0.035,0.123,0.075,0.153,0.119c0.03,0.045,0.071,0.143,0.123,0.293c0.053,0.151,0.106,0.371,0.166,0.664
				c0.059,0.293,0.141,0.7,0.243,1.221c0.171,0.963,0.334,2.094,0.485,3.391c0.15,1.297,0.291,2.752,0.419,4.367
				c0.003,0.237,0.023,0.494,0.059,0.775c0.033,0.281,0.063,0.486,0.09,0.616c0.043,0.211,0.061,0.359,0.057,0.445
				c-0.005,0.085-0.054,0.162-0.148,0.232c-0.152,0.099-0.34,0.164-0.561,0.201c-0.218,0.036-0.399,0.024-0.541-0.032
				c-0.117-0.044-0.275-0.291-0.473-0.742c-0.198-0.449-0.411-1.041-0.632-1.775c-0.224-0.733-0.449-1.571-0.681-2.514
				c-0.233-0.943-0.45-1.918-0.651-2.927c-0.173-0.861-0.299-1.543-0.377-2.043c-0.079-0.5-0.123-0.885-0.133-1.153
				c-0.01-0.268,0.01-0.458,0.065-0.571C388.41,138.581,388.504,138.486,388.641,138.409L388.641,138.409z M392.239,152.221
				c0.916-0.183,1.806,0.41,1.989,1.326c0.184,0.915-0.41,1.807-1.324,1.989c-0.918,0.185-1.809-0.41-1.992-1.326
				C390.73,153.295,391.323,152.405,392.239,152.221z"/>
		</g>
		<g>
			<path style="fill-rule:evenodd;clip-rule:evenodd;fill:#FFFFFF;" d="M387.08,153.786c0.137,0.582,0.235,1.049,0.295,1.402
				c0.339,1.975-1.846,1.992-2.028,0.406l-0.702-3.354c-3.83,0.852-5.713,1.362-7.092,1.812c0.125,0.963,0.274,1.93,0.393,2.893
				c0.27,2.163-2.341,2.391-2.933,0.666c-0.65-1.892-1.052-4.248-1.294-6.234c-0.37-3.033-0.013-8.104,2.584-10.1
				c1.365-1.05,3.809-1.636,5.391-0.779C384.752,142.154,386.199,150.185,387.08,153.786L387.08,153.786z M383.996,150.411
				c0.276,0.028-1.318-4.715-1.706-5.627c-2.753-5.868-4.801-2.95-5.2,2.346c-0.125,1.666-0.084,3.146,0.129,4.797
				C379.445,151.039,382.935,150.312,383.996,150.411z"/>
		</g>
	</g>
	<g>
		<g>
			<polygon style="fill-rule:evenodd;clip-rule:evenodd;fill:#FFFFFF;" points="306.729,106.46 303.38,106.46 305.055,103.757 			
				"/>
			<path style="fill:#FFFFFF;" d="M306.752,106.907c-0.008,0-0.016,0-0.023,0h-3.35c-0.162,0-0.312-0.089-0.39-0.23
				c-0.078-0.141-0.075-0.313,0.012-0.451l1.674-2.702c0.162-0.263,0.595-0.263,0.757,0l1.614,2.603
				c0.092,0.082,0.149,0.201,0.149,0.335C307.196,106.706,306.997,106.907,306.752,106.907z M304.18,106.014h1.749l-0.874-1.411
				L304.18,106.014z"/>
		</g>
		<g>
			<path style="fill:#59B2FF;" d="M306.978,111.54c-0.156,0-0.299-0.079-0.38-0.211l-1.675-2.701
				c-0.086-0.137-0.09-0.31-0.012-0.451c0.08-0.142,0.228-0.229,0.39-0.229h3.35c0.161,0,0.311,0.088,0.39,0.229
				c0.078,0.142,0.075,0.313-0.01,0.451l-1.677,2.701C307.274,111.46,307.131,111.54,306.978,111.54z M306.103,108.838l0.875,1.41
				l0.874-1.41H306.103z"/>
		</g>
	</g>
	<g>
		<g>
			<polygon style="fill-rule:evenodd;clip-rule:evenodd;fill:#FFFFFF;" points="406.315,260.366 402.966,260.366 404.64,257.665 			
				"/>
			<path style="fill:#FFFFFF;" d="M406.337,260.811c-0.008,0-0.015,0-0.022,0h-3.349c-0.161,0-0.309-0.088-0.39-0.229
				c-0.077-0.142-0.074-0.314,0.011-0.451l1.675-2.702c0.162-0.263,0.594-0.263,0.756,0l1.614,2.602
				c0.092,0.083,0.151,0.201,0.151,0.335C406.783,260.612,406.582,260.811,406.337,260.811z M403.766,259.92h1.748l-0.874-1.411
				L403.766,259.92z"/>
		</g>
		<g>
			<path style="fill:#59B2FF;" d="M406.563,265.447c-0.155,0-0.297-0.08-0.379-0.212l-1.674-2.701
				c-0.086-0.137-0.09-0.31-0.012-0.451c0.078-0.141,0.229-0.228,0.389-0.228h3.352c0.162,0,0.31,0.088,0.389,0.228
				c0.078,0.142,0.074,0.315-0.011,0.451l-1.675,2.701C406.859,265.367,406.717,265.447,406.563,265.447z M405.689,262.746
				l0.874,1.409l0.875-1.409H405.689z"/>
		</g>
	</g>
	<g>
		<g>
			<polygon style="fill-rule:evenodd;clip-rule:evenodd;fill:#FFFFFF;" points="159.614,368.25 156.264,368.25 157.939,365.549 			
				"/>
			<path style="fill:#FFFFFF;" d="M159.636,368.698c-0.008,0-0.016,0-0.021,0h-3.351c-0.161,0-0.311-0.088-0.39-0.23
				c-0.078-0.142-0.074-0.314,0.011-0.451l1.674-2.701c0.164-0.264,0.595-0.264,0.758,0l1.613,2.602
				c0.093,0.082,0.15,0.2,0.15,0.333C160.08,368.497,159.882,368.698,159.636,368.698z M157.064,367.806h1.748l-0.873-1.41
				L157.064,367.806z"/>
		</g>
		<g>
			<path style="fill:#59B2FF;" d="M159.861,373.332c-0.155,0-0.297-0.081-0.379-0.211l-1.676-2.701
				c-0.084-0.139-0.088-0.311-0.011-0.452c0.078-0.141,0.228-0.228,0.392-0.228h3.349c0.161,0,0.31,0.088,0.389,0.228
				c0.077,0.142,0.075,0.314-0.011,0.452l-1.674,2.701C160.158,373.25,160.015,373.332,159.861,373.332z M158.987,370.63
				l0.874,1.409l0.873-1.409H158.987z"/>
		</g>
	</g>
	<g>
		<path style="fill:#FFFFFF;" d="M365.243,198.475c-0.11,0-0.222-0.042-0.309-0.125c-0.177-0.172-0.183-0.453-0.011-0.63
			c8.057-8.341,16.799-8.355,17.207-8.342c0.244,0.004,0.443,0.204,0.44,0.45c-0.003,0.246-0.258,0.438-0.448,0.441
			c-0.003,0-0.004,0-0.004,0c-0.214,0-8.835,0.078-16.554,8.068C365.478,198.43,365.36,198.475,365.243,198.475z M176.07,174.333
			c-0.164,0-0.32-0.089-0.399-0.244c-0.112-0.22-0.024-0.488,0.197-0.599c7.845-3.969,13.301-9.933,13.355-9.993
			c0.168-0.183,0.45-0.195,0.631-0.031c0.183,0.166,0.196,0.447,0.03,0.63c-0.054,0.061-5.616,6.143-13.614,10.189
			C176.206,174.317,176.137,174.333,176.07,174.333z M259.435,114.165c-0.241,0-0.44-0.193-0.446-0.436
			c-0.053-2.285-0.75-4.033-2.073-5.197c-2.22-1.954-5.508-1.635-5.543-1.633c-0.233,0.023-0.464-0.151-0.489-0.396
			c-0.027-0.244,0.15-0.463,0.395-0.489c0.151-0.015,3.702-0.367,6.223,1.844c1.52,1.336,2.32,3.304,2.381,5.851
			c0.006,0.246-0.191,0.45-0.437,0.457C259.441,114.165,259.436,114.165,259.435,114.165z"/>
	</g>
</g>
</svg>
